<svg width="61" height="61" viewBox="0 0 61 61" fill="none" xmlns="http://www.w3.org/2000/svg">
<path d="M33.0391 20.3333C38.3842 20.3333 40.6641 22.6132 40.6641 27.9583H45.7474C45.7474 19.7615 41.2359 15.25 33.0391 15.25V20.3333Z" fill="black"/>
<path d="M43.0225 56.8308H43.0936C44.4356 56.8308 45.7039 56.3021 46.6647 55.3414L53.5577 48.4484C53.7939 48.2125 53.9813 47.9324 54.1092 47.6241C54.2371 47.3158 54.3029 46.9852 54.3029 46.6514C54.3029 46.3176 54.2371 45.9871 54.1092 45.6787C53.9813 45.3704 53.7939 45.0903 53.5577 44.8545L43.391 34.6878C43.1552 34.4516 42.8751 34.2641 42.5667 34.1363C42.2584 34.0084 41.9279 33.9426 41.5941 33.9426C41.2602 33.9426 40.9297 34.0084 40.6214 34.1363C40.313 34.2641 40.0329 34.4516 39.7971 34.6878L35.7457 38.7392C33.8674 38.18 30.3624 36.9092 28.141 34.6878C25.9196 32.4664 24.6488 28.9614 24.0896 27.0831L28.141 23.0317C28.3772 22.7959 28.5647 22.5158 28.6925 22.2074C28.8204 21.8991 28.8862 21.5686 28.8862 21.2348C28.8862 20.9009 28.8204 20.5704 28.6925 20.2621C28.5647 19.9537 28.3772 19.6736 28.141 19.4378L17.9743 9.27112C17.4884 8.81249 16.8456 8.557 16.1774 8.557C15.5092 8.557 14.8663 8.81249 14.3804 9.27112L7.48997 16.1641C6.52413 17.13 5.98022 18.4567 6.00055 19.8114C6.05901 23.4307 7.01722 36.0018 16.9246 45.9093C26.8321 55.8167 39.4031 56.7723 43.0225 56.8308ZM16.1799 14.662L22.7527 21.2348L19.4663 24.5211C19.1672 24.8194 18.9475 25.1877 18.8272 25.5926C18.7069 25.9974 18.6898 26.426 18.7775 26.8391C18.8385 27.1314 20.3305 34.0625 24.5496 38.2817C28.7688 42.5009 35.6999 43.9928 35.9922 44.0538C36.4054 44.142 36.834 44.1251 37.239 44.0048C37.6439 43.8845 38.0122 43.6645 38.3102 43.365L41.5966 40.0787L48.1693 46.6514L43.0708 51.7475C39.8988 51.6941 29.0458 50.8426 20.5186 42.3128C11.9633 33.7575 11.1347 22.8665 11.0839 19.758L16.1799 14.662ZM51.748 28.8725H56.8313C56.8313 15.8337 46.9875 6 33.9309 6V11.0833C44.2552 11.0833 51.748 18.5635 51.748 28.8725Z" fill="black"/>
</svg>