
<svg width="48" height="48" viewBox="0 0 48 48" fill="none" xmlns="http://www.w3.org/2000/svg">
<path d="M4.11101 46C3.833 45.9992 3.55787 45.9437 3.30132 45.8366C3.04478 45.7294 2.81184 45.5728 2.61582 45.3757C2.41979 45.1786 2.26452 44.9447 2.15886 44.6876C2.0532 44.4305 1.99922 44.155 2.00001 43.877V4.123C2.00001 2.95 2.94501 2 4.11101 2H43.89C45.055 2 46 2.95 46 4.123V43.877C46.0008 44.155 45.9468 44.4305 45.8412 44.6876C45.7355 44.9447 45.5802 45.1786 45.3842 45.3757C45.1882 45.5728 44.9552 45.7294 44.6987 45.8366C44.4421 45.9437 44.167 45.9992 43.889 46H4.11001H4.11101Z" stroke="black" stroke-width="4" stroke-linecap="round" stroke-linejoin="round"/>
<path fill-rule="evenodd" clip-rule="evenodd" d="M38.661 17.887H33.793C33.1448 17.887 32.5232 18.1445 32.0648 18.6028C31.6065 19.0612 31.349 19.6828 31.349 20.331V25.221H38.661L37.591 32.553H31.349V46H23.306V32.553H16.666V25.222H23.221L23.306 18.263L23.282 15.769C23.274 14.9264 23.433 14.0906 23.7498 13.3099C24.0667 12.5291 24.5351 11.8189 25.1281 11.2203C25.7211 10.6217 26.4268 10.1465 27.2045 9.82218C27.9822 9.4979 28.8164 9.33096 29.659 9.33099H38.661V17.887Z" fill="black"/>
</svg>
