
<svg width="58" height="58" viewBox="0 0 58 58" fill="none" xmlns="http://www.w3.org/2000/svg">
<path d="M34.4375 43.5H7.25L7.24456 16.1421L27.9687 30.4899C28.2717 30.6996 28.6315 30.8119 29 30.8119C29.3685 30.8119 29.7283 30.6996 30.0313 30.4899L50.75 16.1494V32.625H54.375V14.5C54.3736 13.539 53.9912 12.6178 53.3117 11.9383C52.6322 11.2588 51.711 10.8764 50.75 10.875H7.25C6.28888 10.876 5.36741 11.2582 4.6878 11.9378C4.00819 12.6174 3.62596 13.5389 3.625 14.5V43.5C3.62644 44.461 4.00882 45.3822 4.68833 46.0617C5.36783 46.7412 6.28903 47.1236 7.25 47.125H34.4375V43.5ZM46.7607 14.5L29 26.796L11.2393 14.5H46.7607Z" fill="black"/>
<path d="M47.125 50.75C51.1291 50.75 54.375 47.5041 54.375 43.5C54.375 39.4959 51.1291 36.25 47.125 36.25C43.1209 36.25 39.875 39.4959 39.875 43.5C39.875 47.5041 43.1209 50.75 47.125 50.75Z" fill="black"/>
</svg>
